#!OML:ASF I:\golf\golf\golf 2\Subject 1\2002-09-07\Subject1.ASF
:FULLY-SPECIFIED
:DEGREES
260
root -8.04342 17.9466 -0.891417 -161.722 64.3905 -178.302
lowerback 0.772185 -9.02219 1.27935
upperback 4.57759 -11.9619 10.8159
thorax 6.60921 -6.05325 10.1912
lowerneck -12.2833 0.481889 2.17175
upperneck 26.7421 4.95016 -13.9146
head 11.1025 1.18913 -4.76998
rclavicle -5.56597e-015 5.56597e-014
rhumerus -5.00051 -7.98849 -82.3612
rradius 78.2677
rwrist -45.0241
rhand -68.3544 28.7255
rfingers 7.12502
rthumb -40.0627 3.51843
lclavicle -5.56597e-015 5.56597e-014
lhumerus 48.7874 -60.503 82.5012
lradius 18.9709
lwrist -9.22288
lhand -3.00809 23.4975
lfingers 7.12502
lthumb -157.294 -127.818
rfemur -23.4975 -5.36083 7.44685
rtibia 33.078
rfoot -8.44069 -22.6427
rtoes -3.42941
lfemur -33.3136 -4.94504 -11.0181
ltibia 21.1118
lfoot -5.06602 -20.83
ltoes -6.53963
261
root -8.01538 17.9639 -0.964006 -163.974 62.5175 -179.884
lowerback -0.0114746 -8.76571 1.33606
upperback 4.46971 -11.6392 11.4096
thorax 7.01854 -5.88836 10.7589
lowerneck -11.858 -0.57045 1.27656
upperneck 26.9076 3.83581 -14.2002
head 10.9643 0.60919 -4.85692
rclavicle -1.66979e-014 5.725e-014
rhumerus -6.15596 -5.93784 -83.0757
rradius 75.6812
rwrist -49.1606
rhand -67.1978 24.2662
rfingers 7.12502
rthumb -38.9733 -1.26149
lclavicle -1.66979e-014 5.725e-014
lhumerus 42.9842 -59.2506 86.3972
lradius 18.4794
lwrist -10.179
lhand -1.53734 25.4564
lfingers 7.12502
lthumb -155.883 -126.039
rfemur -21.9508 -5.13031 6.5471
rtibia 33.5063
rfoot -8.78085 -23.5363
rtoes 0.151773
lfemur -31.9169 -5.57836 -12.1637
ltibia 19.6871
lfoot -4.08446 -22.4142
ltoes -4.98118
262
root -7.98502 17.9875 -1.03161 -165.638 60.9369 -180.889
lowerback -0.949498 -8.40533 1.49
upperback 4.47769 -11.2005 11.9379
thorax 7.58161 -5.65825 11.2075
lowerneck -11.6251 -1.58018 0.563499
upperneck 27.1202 2.75133 -14.5117
head 10.8961 0.0474016 -4.98164
rclavicle 2.54444e-014 1.54257e-013
rhumerus -6.9317 -4.1528 -83.9106
rradius 72.541
rwrist -52.8063
rhand -65.6036 20.482
rfingers 7.12502
rthumb -37.4684 -5.45989
lclavicle 2.54444e-014 1.54257e-013
lhumerus 39.5625 -58.8843 87.2527
lradius 18.365
lwrist -9.47819
lhand -0.236066 27.7798
lfingers 7.12502
lthumb -154.636 -123.887
rfemur -20.5841 -4.78384 5.88211
rtibia 33.9179
rfoot -9.07993 -24.3213
rtoes 3.41302
lfemur -30.4893 -5.95909 -13.1372
ltibia 18.2883
lfoot -2.7917 -23.8463
ltoes -2.48241
263
root -7.95598 18.0117 -1.09867 -167.243 59.5977 -181.783
lowerback -1.7775 -7.93809 1.61586
upperback 4.53954 -10.6098 12.4192
thorax 8.10202 -5.35277 11.6771
lowerneck -11.5068 -2.63644 -0.181321
upperneck 27.351 1.58009 -14.7185
head 10.8552 -0.552632 -5.07106
rclavicle -3.81667e-014 -1.65389e-013
rhumerus -7.54828 -1.9385 -84.3774
rradius 69.3767
rwrist -57.0463
rhand -64.2812 17.4481
rfingers 7.12502
rthumb -36.2173 -8.81474
lclavicle -3.81667e-014 -1.65389e-013
lhumerus 37.0849 -59.0281 87.1007
lradius 18.3994
lwrist -7.55741
lhand 1.5208 30.4293
lfingers 7.12502
lthumb -152.954 -121.487
rfemur -19.2384 -4.43587 5.23026
rtibia 34.2848
rfoot -9.25572 -25.0011
rtoes 6.04216
lfemur -28.9728 -6.0522 -14.1833
ltibia 16.9768
lfoot -1.30502 -25.234
ltoes 0.764628
